<svg width="364" height="130" viewBox="0 0 364 130" fill="none" xmlns="http://www.w3.org/2000/svg">
<path d="M165.08 91.092C160.615 91.092 156.781 90.3028 153.579 88.7242C150.377 87.1457 147.761 85.0936 145.731 82.5679C143.747 80.0422 142.281 77.291 141.334 74.3143C140.387 71.3377 139.913 68.4737 139.913 65.7225V64.2342C139.913 61.1673 140.387 58.1455 141.334 55.1688C142.326 52.1921 143.837 49.4861 145.866 47.0506C147.896 44.6151 150.467 42.6758 153.579 41.2325C156.736 39.7442 160.457 39 164.741 39C169.206 39 173.085 39.8118 176.378 41.4355C179.715 43.014 182.376 45.2691 184.36 48.2007C186.345 51.0872 187.54 54.4698 187.946 58.3485H178.272C177.911 56.0934 177.099 54.1991 175.836 52.6657C174.619 51.0872 173.063 49.9145 171.168 49.1478C169.274 48.336 167.132 47.9301 164.741 47.9301C162.306 47.9301 160.141 48.3585 158.247 49.2155C156.353 50.0273 154.774 51.1999 153.511 52.7334C152.248 54.2668 151.279 56.0709 150.602 58.1455C149.971 60.2202 149.655 62.5203 149.655 65.046C149.655 67.4815 149.971 69.7366 150.602 71.8112C151.279 73.8859 152.271 75.7125 153.579 77.291C154.887 78.8245 156.488 80.0197 158.382 80.8766C160.321 81.7335 162.554 82.162 165.08 82.162C168.778 82.162 171.89 81.2599 174.416 79.4559C176.986 77.6067 178.542 75.036 179.084 71.7436H188.758C188.307 75.2615 187.112 78.4862 185.172 81.4178C183.233 84.3494 180.572 86.6946 177.189 88.4536C173.807 90.2126 169.77 91.092 165.08 91.092Z" fill="white"/>
<path d="M193.211 89.8066V40.4207H202.615V89.8066H193.211ZM188.611 47.4565V40.4207H202.615V47.4565H188.611Z" fill="white"/>
<path d="M227.625 91.092C224.378 91.092 221.514 90.5734 219.033 89.536C216.553 88.4987 214.455 87.1006 212.742 85.3416C211.028 83.5376 209.72 81.508 208.818 79.2529C207.961 76.9979 207.532 74.6526 207.532 72.2171V70.7964C207.532 68.2708 207.983 65.8804 208.885 63.6253C209.832 61.3252 211.163 59.2956 212.877 57.5366C214.636 55.7326 216.756 54.3345 219.236 53.3422C221.717 52.3049 224.513 51.7862 227.625 51.7862C230.737 51.7862 233.533 52.3049 236.014 53.3422C238.494 54.3345 240.592 55.7326 242.305 57.5366C244.064 59.2956 245.395 61.3252 246.297 63.6253C247.199 65.8804 247.65 68.2708 247.65 70.7964V72.2171C247.65 74.6526 247.199 76.9979 246.297 79.2529C245.44 81.508 244.155 83.5376 242.441 85.3416C240.727 87.1006 238.63 88.4987 236.149 89.536C233.669 90.5734 230.827 91.092 227.625 91.092ZM227.625 83.0414C229.925 83.0414 231.864 82.5453 233.443 81.5531C235.022 80.5158 236.217 79.1402 237.029 77.4263C237.84 75.6674 238.246 73.6829 238.246 71.473C238.246 69.2179 237.818 67.2334 236.961 65.5196C236.149 63.7606 234.931 62.385 233.308 61.3928C231.729 60.3555 229.835 59.8368 227.625 59.8368C225.415 59.8368 223.498 60.3555 221.875 61.3928C220.296 62.385 219.078 63.7606 218.221 65.5196C217.364 67.2334 216.936 69.2179 216.936 71.473C216.936 73.6829 217.342 75.6674 218.154 77.4263C219.011 79.1402 220.228 80.5158 221.807 81.5531C223.385 82.5453 225.325 83.0414 227.625 83.0414Z" fill="white"/>
<path d="M265.017 90.9567C260.777 90.9567 257.485 89.5586 255.14 86.7623C252.84 83.966 251.689 79.8167 251.689 74.3143V53.004H261.093V75.1262C261.093 77.3812 261.725 79.1853 262.987 80.5383C264.25 81.8463 265.964 82.5002 268.129 82.5002C270.294 82.5002 272.053 81.8012 273.406 80.403C274.804 79.0049 275.503 77.1106 275.503 74.7203V53.004H284.907V89.8066H277.465V74.179H278.209C278.209 77.8773 277.736 80.9668 276.788 83.4474C275.841 85.9279 274.421 87.7996 272.526 89.0625C270.632 90.3253 268.264 90.9567 265.423 90.9567H265.017Z" fill="white"/>
<path d="M307.548 91.0244C304.977 91.0244 302.609 90.5508 300.444 89.6037C298.28 88.6566 296.408 87.3261 294.829 85.6122C293.251 83.8984 292.033 81.9139 291.176 79.6588C290.319 77.3587 289.891 74.8781 289.891 72.2171V70.7964C289.891 68.1806 290.297 65.7225 291.108 63.4224C291.965 61.1222 293.138 59.1152 294.626 57.4013C296.16 55.6875 297.986 54.357 300.106 53.4099C302.271 52.4176 304.661 51.9215 307.277 51.9215C310.164 51.9215 312.689 52.553 314.854 53.8158C317.064 55.0335 318.823 56.8827 320.131 59.3633C321.439 61.8438 322.161 64.9558 322.296 68.6992L319.522 65.4519V40.4207H328.926V89.8066H321.484V74.179H323.108C322.972 77.9224 322.206 81.057 320.808 83.5827C319.409 86.0632 317.56 87.9349 315.26 89.1978C313.005 90.4155 310.434 91.0244 307.548 91.0244ZM309.645 83.1091C311.494 83.1091 313.186 82.7032 314.719 81.8914C316.252 81.0344 317.47 79.8167 318.372 78.2382C319.319 76.6145 319.793 74.7202 319.793 72.5554V69.8493C319.793 67.6844 319.319 65.8804 318.372 64.4371C317.425 62.9488 316.185 61.8213 314.651 61.0546C313.118 60.2427 311.449 59.8368 309.645 59.8368C307.615 59.8368 305.811 60.3329 304.233 61.3252C302.699 62.2723 301.482 63.6253 300.58 65.3843C299.723 67.1432 299.294 69.1953 299.294 71.5406C299.294 73.8859 299.745 75.938 300.647 77.6969C301.549 79.4108 302.767 80.7413 304.301 81.6884C305.879 82.6355 307.661 83.1091 309.645 83.1091Z" fill="white"/>
<path d="M104.484 95C101.235 95 99.2334 93.5 95.9629 91.7334C92.6924 89.9668 83.2334 82.854 83.2334 74C83.2334 67.9937 81.6851 63.1357 79.0483 59.2642C76.4312 55.4224 72.8857 52.7607 69.1973 50.8818C67.4199 49.9766 65.5703 49.2363 63.7285 48.6245C62.6548 48.2681 62.0317 47.1152 62.4976 46.0845C65.4502 39.5479 72.0259 35 79.6646 35C90.0625 35 98.4922 43.4292 98.4922 53.8276C98.4922 56.0522 98.1064 58.187 97.3979 60.168C100.399 58.1455 104.015 56.9653 107.906 56.9653C118.304 56.9653 126.733 65.3945 126.733 75.793C126.733 88.311 115.733 95 104.484 95Z" fill="white"/>
<path d="M35.7334 74.2241C35.7334 84.1484 42.2764 92.4175 50.9443 94.2446C52.2822 94.7334 53.7266 95 55.2334 95H84.4858C85.4668 95 85.894 93.688 85.145 93.0542C80.0327 88.7285 76.2334 82.6323 76.2334 74C76.2334 69.2568 75.0322 65.8022 73.2627 63.2051C71.4731 60.5781 68.9561 58.6147 66.02 57.1187C63.0566 55.6094 59.8394 54.6479 56.7671 53.9663C56.0435 53.875 55.3071 53.8276 54.561 53.8276C44.1626 53.8276 35.7334 62.9595 35.7334 74.2241Z" fill="white"/>
</svg>
